<svg
	width="16"
	height="16"
	viewBox="0 0 16 16"
	fill="none"
	xmlns="http://www.w3.org/2000/svg"
>
	<g clip-path="url(#clip0_9_14)">
		<rect width="16" height="16" />
		<path
			d="M2.06968 0.184326H4.0714V0.622086H2.06968V0.184326ZM12.075 0.184326H14.0767V0.622086H12.075V0.184326ZM0.814309 4.43905H0.324097V0.552966H0.814309V4.43905ZM5.81696 4.43905H5.32675V0.552966H5.81696V4.43905ZM10.8196 4.43905H10.3294V0.552966H10.8196V4.43905ZM15.8223 4.43905H15.3321V0.552966H15.8223V4.43905ZM0.814309 8.27905H0.324097V4.39297H0.814309V8.27905ZM5.81696 8.27905H5.32675V4.39297H5.81696V8.27905ZM7.07235 7.86433H9.07405V8.30209H7.07235V7.86433ZM10.8196 8.27905H10.3294V4.39297H10.8196V8.27905ZM15.8223 8.27905H15.3321V4.39297H15.8223V8.27905ZM3.91616 11.8618L3.44638 12L2.22492 8.49025L2.69062 8.35201L3.91616 11.8618ZM4.57101 11.7043H6.57271V12.1421H4.57101V11.7043ZM7.07235 11.7043H9.07405V12.1421H7.07235V11.7043ZM10.1864 11.209C10.1864 11.1603 10.196 11.1142 10.215 11.0707C10.2368 11.0246 10.2654 10.9862 10.3008 10.9555C10.3362 10.9222 10.3771 10.8966 10.4234 10.8787C10.4697 10.8582 10.52 10.848 10.5745 10.848C10.6263 10.848 10.6753 10.8582 10.7216 10.8787C10.7706 10.8966 10.8128 10.9222 10.8482 10.9555C10.8836 10.9862 10.9109 11.0246 10.9299 11.0707C10.9517 11.1142 10.9626 11.1603 10.9626 11.209V11.6774C10.9626 11.7747 10.9272 11.8566 10.8564 11.9232C10.7883 11.9898 10.7025 12.023 10.599 12.023H10.3376V11.7235H10.5337C10.6072 11.7235 10.644 11.6851 10.644 11.6083V11.5622C10.6222 11.5699 10.599 11.5738 10.5745 11.5738C10.52 11.5738 10.4697 11.5635 10.4234 11.543C10.3771 11.5251 10.3362 11.4995 10.3008 11.4662C10.2654 11.433 10.2368 11.3946 10.215 11.351C10.196 11.3075 10.1864 11.2602 10.1864 11.209ZM15.8223 12.119H15.3321V8.23297H15.8223V12.119ZM3.31564 15.959H2.82543V12.073H3.31564V15.959ZM4.57101 15.5443H6.57271V15.9821H4.57101V15.5443ZM7.07235 15.5443H9.07405V15.9821H7.07235V15.5443ZM9.57366 15.5443H11.5754V15.9821H9.57366V15.5443ZM13.4558 12.192L13.9215 12.3302L12.7 15.84L12.2302 15.7018L13.4558 12.192Z"
			fill="black"
		/>
	</g>
	<defs>
		<clipPath id="clip0_9_14">
			<rect width="16" height="16" />
		</clipPath>
	</defs>
	<style>
	path {
		fill: #1e1e2e;
	}
	@media (prefers-color-scheme: dark) {
		path {
			fill: #bac2de;
		}
	}
	</style>
</svg>
