<svg xmlns="http://www.w3.org/2000/svg" aria-hidden="true" viewBox="0 0 420 62">
	<path
		fill="currentColor"
		d="M153 .6h6v1.3h-6V.6Zm29.4 0h5.9v1.3h-5.9V.6ZM6.1 12.6H12v1.3H6v-1.3Zm29.4 0h5.9v1.3h-6v-1.3Zm22 0h5.9v1.3h-5.9v-1.3Zm7.4 0h5.8v1.3H65v-1.3Zm14.7 0h5.8v1.3h-5.8v-1.3Zm14.7 0h5.8v1.3h-5.8v-1.3Zm14.6 0h6v1.3h-6v-1.3Zm7.4 0h5.9v1.3h-6v-1.3Zm33 1.3H148V1.7h1.4V14Zm14.7 0h-1.4V1.7h1.4V14Zm3.7-1.3h6v1.3h-6v-1.3Zm11 1.3h-1.4V1.7h1.4V14Zm14.7 0H192V1.7h1.4V14Zm3.7-1.3h5.9v1.3h-5.9v-1.3Zm7.4 0h5.8v1.3h-5.8v-1.3Zm29.4 0h5.8v1.3H234v-1.3Zm7.3 0h5.9v1.3h-5.9v-1.3Zm7.4 0h5.8v1.3h-5.8v-1.3Zm22 0h5.9v1.3h-5.9v-1.3Zm14.7 0h5.9v1.3h-6v-1.3Zm7.3 0h6v1.3h-6v-1.3Zm14.7 0h6v1.3h-6v-1.3Zm7.4 0h5.9v1.3h-6v-1.3Zm7.3 0h6v1.3h-6v-1.3Zm29.4 0h5.9v1.3h-5.9v-1.3Zm7.4 0h5.8v1.3h-5.8v-1.3Zm14.7 0h5.8v1.3h-5.8v-1.3Zm14.7 0h5.8v1.3h-5.8v-1.3Zm7.3 0h5.9v1.3h-5.9v-1.3Zm7.4 0h5.8v1.3H403v-1.3ZM2.4 25.9H1V13.7h1.4V26Zm14.7 0h-1.5V13.7h1.5V26Zm14.7 0h-1.5V13.7h1.5V26Zm14.7 0H45V13.7h1.5V26ZM54.2 14l1.4.4-3.6 11-1.4-.4 3.6-11ZM65 24.6h5.8v1.3H65v-1.3Zm11.3-7.4H75l-1-1.7h1.6l.6 1.7Zm14.4 8.7H89V13.7h1.5V26Zm13.5-8.3c-.2 0-.4-.2-.5-.4a1.2 1.2 0 0 1-.1-1l.2-.4.4-.3a1 1 0 0 1 .9 0l.3.3.3.3v.5l-.1.6-.5.4v1.5h-1v-1.5Zm4.8 7h6v1.3h-6v-1.3Zm20.2.5-1.4.4-3.6-11 1.4-.4 3.6 11Zm20.2.8H148V13.7h1.4V26Zm11-1.3h6v1.3h-6v-1.3Zm7.4 0h6v1.3h-6v-1.3Zm11 1.3h-1.4V13.7h1.4V26Zm13.5-8.3c-.2 0-.3-.2-.4-.4a1.2 1.2 0 0 1-.1-1l.2-.4.4-.3a1 1 0 0 1 .8 0c.2 0 .3.2.4.3l.2.3.1.5c0 .2 0 .4-.2.6 0 .2-.2.3-.4.4v1.5h-1v-1.5Zm5 7h5.8v1.3h-5.9v-1.3Zm20 .5-1.3.4-3.6-11 1.3-.4 3.6 11Zm13.4-11 1.3.4-3.6 11-1.3-.4 3.6-11Zm10.6 10.5h5.9v1.3h-5.9v-1.3Zm20.1.5-1.4.4-3.5-11 1.3-.4 3.6 11Zm5.6.8h-1.4V13.7h1.4V26Zm13.5-8.3c-.2 0-.3-.2-.5-.4a1.2 1.2 0 0 1 0-1c0-.2 0-.3.2-.4l.3-.3a1 1 0 0 1 1 0l.3.3.2.3.1.5c0 .2 0 .4-.2.6l-.4.4v1.5h-1v-1.5Zm4.9 7h5.9v1.3h-6v-1.3Zm18.7-7.4h-1.2l-1-1.7h1.6l.6 1.7Zm10.7 7.4h5.9v1.3h-6v-1.3Zm20.1.5-1.4.4-3.6-11 1.4-.4 3.6 11Zm13.3-11 1.4.4-3.6 11-1.4-.4 3.6-11Zm10.7 10.5h5.8v1.3h-5.8v-1.3Zm11.3-7.4H369l-1-1.7h1.6l.6 1.7ZM385 14l1.3.4-3.6 11-1.3-.4 3.6-11Zm10.6 10.5h5.9v1.3h-5.9v-1.3Zm7.4 0h5.8v1.3H403v-1.3Zm11 1.3h-1.5V13.7h1.5V26ZM2.4 37.9H1V25.7h1.4V38Zm14.7 0h-1.5V25.7h1.5V38Zm3.7-1.3h5.9v1.3h-6v-1.3Zm11 1.3h-1.5V25.7h1.5V38Zm14.7 0H45V25.7h1.5V38Zm17.1-1.5v1.5h-.5a5 5 0 0 1-1.7-.3 3.7 3.7 0 0 1-2.3-2.2c-.3-.6-.4-1.2-.4-2v-3.2c0-.8.1-1.4.4-2 .2-.6.5-1 1-1.4.3-.4.8-.6 1.3-.8a5 5 0 0 1 1.7-.3h.5v1.5h-.4l-1.2.2-.9.5-.6 1a4 4 0 0 0-.2 1.4v3c0 .5 0 1 .2 1.4l.6 1 1 .5 1 .2h.5Zm1.3.2h5.8v1.3H65v-1.3Zm11 1.3h-1.5V25.7H76V38Zm14.7 0H89V25.7h1.5V38Zm14.7 0h-1.5V25.7h1.5V38Zm14.7 0h-1.5V25.7h1.5V38Zm14.7 0h-1.5V25.7h1.5V38Zm14.6 0H148V25.7h1.4V38Zm14.7 0h-1.4V25.7h1.4V38Zm3.7-1.3h6v1.3h-6v-1.3Zm11 1.3h-1.4V25.7h1.4V38Zm14.7 0H192V25.7h1.4V38Zm14.7 0h-1.4V25.7h1.4V38Zm14.7 0h-1.4V25.7h1.4V38Zm17.2-1.5v1.5h-.5c-.6 0-1.2-.1-1.7-.3a3.7 3.7 0 0 1-2.4-2.2 6 6 0 0 1-.3-2v-3.2c0-.8 0-1.4.3-2 .3-.6.6-1 1-1.4.4-.4.8-.6 1.4-.8.5-.2 1-.3 1.7-.3h.5v1.5h-.5l-1.1.2-1 .5-.6 1a4 4 0 0 0-.2 1.4v3l.2 1.4.7 1c.2.2.5.4.9.5l1.1.2h.5Zm1.2.2h5.9v1.3h-5.9v-1.3Zm7.6-.2 1.1-.2 1-.5.5-1c.2-.4.3-.9.3-1.4v-3c0-.5-.1-1-.3-1.4a2.3 2.3 0 0 0-1.5-1.5l-1.1-.2h-.5v-1.5h.5c.6 0 1.2.1 1.7.3a3.7 3.7 0 0 1 2.4 2.2c.2.6.3 1.2.3 2v3.2a6 6 0 0 1-.3 2 3.7 3.7 0 0 1-2.4 2.2c-.5.2-1 .3-1.7.3h-.5v-1.5h.5Zm18.1 1.5h-1.4V25.7h1.4V38Zm14.7 0h-1.4V25.7h1.4V38Zm14.7 0h-1.4V25.7h1.4V38Zm14.7 0h-1.4V25.7h1.4V38Zm14.7 0h-1.5V25.7h1.5V38Zm14.7 0h-1.5V25.7h1.5V38Zm17.1-1.5v1.5h-.5a5 5 0 0 1-1.7-.3 3.7 3.7 0 0 1-2.3-2.2c-.3-.6-.4-1.2-.4-2v-3.2c0-.8.1-1.4.4-2 .2-.6.5-1 1-1.4.3-.4.8-.6 1.3-.8a5 5 0 0 1 1.7-.3h.5v1.5h-.4l-1.2.2-.9.5-.6 1a4 4 0 0 0-.2 1.4v3c0 .5 0 1 .2 1.4l.6 1 1 .5 1.1.2h.4Zm1.3.2h5.8v1.3h-5.8v-1.3Zm11 1.3h-1.5V25.7h1.5V38Zm16.4-.8-1.3.4-3.6-11 1.3-.4 3.6 11Zm2-.5h5.8v1.3h-5.8v-1.3Zm7.3 0h5.9v1.3h-5.9v-1.3Zm20.1.5-1.4.4-3.5-11 1.3-.4 3.6 11ZM11.5 49l-1.4.4-3.6-11 1.4-.4 3.6 11Zm2-.5h5.8v1.3h-5.9v-1.3Zm7.3 0h5.9v1.3h-6v-1.3Zm9.1-1.6.1-.4.3-.4.3-.2a1 1 0 0 1 .9 0 1 1 0 0 1 .6.6l.1.4v1.5c0 .3-.1.6-.3.8a1 1 0 0 1-.8.3h-.7v-1h.5c.3 0 .4 0 .4-.3V48H31a1 1 0 0 1-.5 0 1 1 0 0 1-.3-.3l-.3-.3V47ZM46.5 50H45V37.7h1.5V50Zm9-.8-1.3.4-3.6-11 1.4-.4 3.6 11Zm2-.5h5.9V50h-5.9v-1.3Zm7.4 0h5.8V50H65v-1.3ZM74 47v-.4c.2-.1.2-.3.3-.4l.4-.2a1 1 0 0 1 .9 0 1 1 0 0 1 .6.6v1.9c0 .3 0 .6-.2.8a1 1 0 0 1-.8.3h-.7v-1h.5c.2 0 .4 0 .4-.3V48H75a1 1 0 0 1-.4 0 1 1 0 0 1-.4-.3l-.2-.3V47Zm5.6 1.6h5.8v1.3h-5.8v-1.3Zm11 1.3H89V37.7h1.5V50Zm3.7-1.3h5.8v1.3h-5.8v-1.3Zm11 1.3h-1.5V37.7h1.5V50Zm14.7 0h-1.5V37.7h1.5V50Zm3.6-1.3h6v1.3h-6v-1.3Zm11 1.3h-1.4V37.7h1.5V50Zm23.9-.8-1.4.4-3.6-11 1.4-.4 3.6 11Zm1.9-.5h5.9v1.3h-6v-1.3Zm7.3 0h6v1.3h-6v-1.3Zm11 1.3h-1.4V37.7h1.4V50Zm3.7-1.3h5.9v1.3h-5.9v-1.3Zm11 1.3H192V37.7h1.4V50Zm14.7 0h-1.4V37.7h1.4V50Zm3.7-1.3h5.9v1.3h-5.9v-1.3Zm11 1.3h-1.4V37.7h1.4V50Zm9.1-.8-1.3.4-3.6-11 1.3-.4 3.6 11Zm2-.5h5.8v1.3H234v-1.3Zm7.3 0h5.9v1.3h-5.9v-1.3Zm7.4 0h5.8v1.3h-5.8v-1.3ZM260 38l1.3.4-3.6 11-1.3-.4 3.6-11Zm7 11.8h-1.5V37.7h1.4V50Zm3.6-1.3h5.9v1.3h-5.9v-1.3Zm11 1.3h-1.4V37.7h1.4V50Zm14.7 0h-1.4V37.7h1.4V50Zm3.7-1.3h5.9v1.3h-6v-1.3Zm11 1.3h-1.4V37.7h1.4V50Zm14.7 0h-1.5V37.7h1.5V50Zm3.7-1.3h5.9v1.3h-6v-1.3Zm11 1.3h-1.5V37.7h1.5V50Zm9.1-.8-1.4.4-3.6-11 1.4-.4 3.6 11Zm2-.5h5.8v1.3h-5.9v-1.3Zm7.3 0h5.8v1.3h-5.8v-1.3Zm9.1-1.6.1-.4.3-.4.3-.2a1 1 0 0 1 .9 0 1 1 0 0 1 .6.6v1.9c0 .3 0 .6-.2.8a1 1 0 0 1-.8.3h-.7v-1h.5c.3 0 .4 0 .4-.3V48h-.2a1 1 0 0 1-.5 0 1 1 0 0 1-.3-.3c-.2 0-.2-.2-.3-.3V47Zm5.6 1.6h5.8v1.3h-5.8v-1.3Zm11 1.3H383V37.7h1.5V50Zm3.7-1.3h5.8v1.3h-5.8v-1.3Zm7.3 0h5.9v1.3h-5.9v-1.3Zm7.4 0h5.8v1.3H403v-1.3ZM414.3 38l1.3.4-3.6 11-1.3-.4 3.6-11ZM9.7 61.9H8.3V49.7h1.4V62Zm3.7-1.3h6v1.3h-6v-1.3Zm7.4 0h5.9v1.3h-6v-1.3Zm7.3 0H34v1.3h-5.9v-1.3ZM39.5 50l1.4.4-3.6 11-1.4-.4 3.6-11Z"
	/>
</svg>
